# xmcd CD database file
#
# Track frame offsets:
#	150
#	14994
#	29692
#	44095
#	60410
#	75890
#	89764
#	103134
#	117520
#	137231
#	152750
#	166066
#	181914
#	196385
#	210143
#	225669
#	240726
#	256275
#	269179
#	283311
#	295179
#	313847
#
# Disc length: 4391 seconds
#
# Revision: 1
# Processed by: cddbd v1.5.2PL0 Copyright (c) Steve Scherf et al.
# Submitted via: CDex 1.51
#
DISCID=4d112516
DTITLE=Varios - Sertanejo 2006
DYEAR=2006
DGENRE=Country
TTITLE0=EDSON and HUDSON - HEI VOCÊ AÍ
TTITLE1=TEODORO and SAMPAIO - BATE A BOTA NO CHÃO
TTITLE2=LEONARDO - DE LATINHA NA MÃO
TTITLE3=GINO and GENO - ELA CHOROU DE AMOR
TTITLE4=BRUNO and MARRONE - VÊ SE TOMA JUÍZO
TTITLE5=TEODORO and SAMPAIO - ROELA DO ENO
TTITLE6=RICK and RENNER - SÓ COISÁ
TTITLE7=EMÍLIO and EDUARDO - COMITIVA QUEBRADEIRA
TTITLE8=HUGO and TIAGO - OS CORAÇÕES NÃO SÃO IGUAIS
TTITLE9=ROBY and ROGER - VOU DORMIR NA RUA
TTITLE10=TEODORO and SAMPAIO - TÔ FACINHO
TTITLE11=DANIEL - CAIPIRINHA
TTITLE12=RICK and RENNER - MULHERADA
TTITLE13=GINO and GENO - NÓIS ENVERGA MAIS NÃO QUEBRA
TTITLE14=LEONARDO - UMA PALAVRA SÓ
TTITLE15=BRUNO and MARRONE - NÃO POSSO TER MEDO DE AMAR
TTITLE16=DANIEL - A PRIMEIRA LETRA
TTITLE17=EMÍLIO and EDUARDO - BAILÃO DA ROÇA
TTITLE18=CHITÃOZINHO and XORORÓ - É AMOR, É PAIXÃO
TTITLE19=BRUNO and MARRONE - ME NAMORA
TTITLE20=GINO and GENO - APAIXONADO POR VOCÊ
TTITLE21=CHITÃOZINHO and XORORÓ - VIDA PELO AVESSO
EXTD=E.O.Café YEAR: 2006
EXTT0=
EXTT1=
EXTT2=
EXTT3=
EXTT4=
EXTT5=
EXTT6=
EXTT7=
EXTT8=
EXTT9=
EXTT10=
EXTT11=
EXTT12=
EXTT13=
EXTT14=
EXTT15=
EXTT16=
EXTT17=
EXTT18=
EXTT19=
EXTT20=
EXTT21=
PLAYORDER=
